<svg id="Layer_3" data-name="Layer 3" xmlns="http://www.w3.org/2000/svg" viewBox="0 0 359.09 300.9"><defs><style>.cls-1{fill:#faaf42;}.cls-2{fill:#fff;}</style></defs><title>code bandits logo reversed</title><rect class="cls-1" x="145.84" width="46.6" height="41.34"/><rect class="cls-1" x="146.84" y="259.56" width="155.08" height="41.34"/><path d="M172,16L161.72,38a5.17,5.17,0,0,1-.88,1.44,1.3,1.3,0,0,1-.95.4,2.2,2.2,0,0,1-1.43-.51,1.57,1.57,0,0,1-.62-1.27,4.5,4.5,0,0,1,.47-1.58l0-.07,10.28-22a5.36,5.36,0,0,1,.9-1.48,1.3,1.3,0,0,1,.95-0.4,2.21,2.21,0,0,1,1.42.51,1.56,1.56,0,0,1,.63,1.27,2.33,2.33,0,0,1-.11.67A7.68,7.68,0,0,1,172,16Z" transform="translate(-6.96 -5.48)"/><path d="M180.91,26.09a5.53,5.53,0,0,1,1.65-4,5.48,5.48,0,0,1,7.91,0,5.53,5.53,0,0,1,1.65,4A5.61,5.61,0,0,1,180.91,26.09Z" transform="translate(-6.96 -5.48)"/><path class="cls-2" d="M206.81,29.73a4,4,0,0,1,2.46,1.78,9,9,0,0,1,.7,4.16v2.6a5.15,5.15,0,0,0,.39,2.44,2.17,2.17,0,0,0,1.41.86q0.23,0.05.65,0.11A1.46,1.46,0,0,1,214,43.13a1.14,1.14,0,0,1-.4.93,1.75,1.75,0,0,1-1.14.33q-3,0-4.18-1.48T207,37.36v-2a5.4,5.4,0,0,0-.58-2.91q-0.58-.85-2.85-1.24a1.64,1.64,0,0,1-1-.43,1.46,1.46,0,0,1-.3-1,1.21,1.21,0,0,1,1-1.34l0.76-.18q2.92-.62,2.92-4V22.1q0-4.06,1.23-5.55t4.2-1.49a1.65,1.65,0,0,1,1.12.34,1.18,1.18,0,0,1,.4.94q0,1.21-1.55,1.41l-0.47.07a2.23,2.23,0,0,0-1.54.87,5.16,5.16,0,0,0-.43,2.56v2.58a9,9,0,0,1-.7,4.17A3.92,3.92,0,0,1,206.81,29.73Z" transform="translate(-6.96 -5.48)"/><path class="cls-1" d="M233.74,26.74l-11.46-5.43a4.14,4.14,0,0,1-1.33-.92,1.79,1.79,0,0,1,0-2.29,1.56,1.56,0,0,1,1.18-.46,2.32,2.32,0,0,1,.64.11,8.83,8.83,0,0,1,1,.4l13.92,6.5,0.14,0.09q2,0.9,2,2.07t-1.88,2a1.54,1.54,0,0,1-.28.14l-13.9,6.38a6.08,6.08,0,0,1-.91.35,2.65,2.65,0,0,1-.71.11,1.57,1.57,0,0,1-1.18-.45,1.65,1.65,0,0,1-.44-1.2,1.62,1.62,0,0,1,.38-1.08,4,4,0,0,1,1.34-.91Z" transform="translate(-6.96 -5.48)"/><path class="cls-2" d="M89.63,87.43v2.09H67.39V87.43H89.63Z" transform="translate(-6.96 -5.48)"/><path class="cls-2" d="M111.23,87.43v2.09H89V87.43h22.24Z" transform="translate(-6.96 -5.48)"/><path class="cls-2" d="M132.84,87.43v2.09H110.6V87.43h22.24Z" transform="translate(-6.96 -5.48)"/><path class="cls-2" d="M154.44,87.43v2.09H132.2V87.43h22.24Z" transform="translate(-6.96 -5.48)"/><path class="cls-2" d="M161.33,87.26a5,5,0,0,1,.6-1.56q0.6-1.2.91-1.92a30.2,30.2,0,0,0,1.69-5.14,22.42,22.42,0,0,0,.51-4.81,22.66,22.66,0,0,0-.43-4.42,24.23,24.23,0,0,0-1.31-4.35q-0.46-1.16-1.21-2.73a7.12,7.12,0,0,1-.76-2,0.89,0.89,0,0,1,.18-0.57,0.56,0.56,0,0,1,.46-0.22,2,2,0,0,1,1.24.57A10.38,10.38,0,0,1,164.74,62a20.34,20.34,0,0,1,2.81,5.64,20.67,20.67,0,0,1,.93,6.22,20.35,20.35,0,0,1-.78,5.68,21.06,21.06,0,0,1-2.35,5.24,14.85,14.85,0,0,1-1.91,2.53,2.27,2.27,0,0,1-1.48.81,0.55,0.55,0,0,1-.46-0.23A1,1,0,0,1,161.33,87.26Z" transform="translate(-6.96 -5.48)"/><path class="cls-2" d="M211.69,60.36A5.16,5.16,0,0,1,211.1,62q-0.59,1.22-.89,1.94a28.45,28.45,0,0,0-1.7,5.12,22.76,22.76,0,0,0-.5,4.82,23.13,23.13,0,0,0,.42,4.46,23.8,23.8,0,0,0,1.28,4.3q0.44,1.16,1.2,2.73a7.19,7.19,0,0,1,.76,1.94,1,1,0,0,1-.17.61,0.53,0.53,0,0,1-.45.22,2,2,0,0,1-1.21-.57,9.93,9.93,0,0,1-1.55-1.84,20.53,20.53,0,0,1-.65-22.75,13.23,13.23,0,0,1,1.88-2.51,2.38,2.38,0,0,1,1.53-.84,0.53,0.53,0,0,1,.45.22A0.92,0.92,0,0,1,211.69,60.36Z" transform="translate(-6.96 -5.48)"/><path class="cls-2" d="M240.85,87.43v2.09H218.62V87.43h22.24Z" transform="translate(-6.96 -5.48)"/><path class="cls-2" d="M262.46,87.43v2.09H240.22V87.43h22.24Z" transform="translate(-6.96 -5.48)"/><path class="cls-2" d="M284.06,87.43v2.09H261.83V87.43h22.24Z" transform="translate(-6.96 -5.48)"/><path class="cls-2" d="M305.67,87.43v2.09H283.43V87.43h22.24Z" transform="translate(-6.96 -5.48)"/><path class="cls-2" d="M31.34,124.71a3.75,3.75,0,0,1-.73,1.2,1.16,1.16,0,0,1-.82.32,1.19,1.19,0,0,1-.86-0.36,1.17,1.17,0,0,1-.37-0.87,1.2,1.2,0,0,1,.05-0.33,3.62,3.62,0,0,1,.14-0.4l11-23.64a4.66,4.66,0,0,1,.77-1.24,1.12,1.12,0,0,1,.81-0.33,1.25,1.25,0,0,1,.9.35,1.12,1.12,0,0,1,.37.84,1.32,1.32,0,0,1,0,.32,1.37,1.37,0,0,1-.13.33Z" transform="translate(-6.96 -5.48)"/><path class="cls-2" d="M52.94,124.71a3.75,3.75,0,0,1-.73,1.2,1.16,1.16,0,0,1-.82.32,1.19,1.19,0,0,1-.86-0.36,1.17,1.17,0,0,1-.37-0.87,1.2,1.2,0,0,1,.05-0.33,3.62,3.62,0,0,1,.14-0.4l11-23.64a4.66,4.66,0,0,1,.77-1.24,1.12,1.12,0,0,1,.81-0.33,1.25,1.25,0,0,1,.9.35,1.12,1.12,0,0,1,.37.84,1.32,1.32,0,0,1,0,.32,1.37,1.37,0,0,1-.13.33Z" transform="translate(-6.96 -5.48)"/><path class="cls-2" d="M78.29,108.82a0.8,0.8,0,0,1-.63-0.22,1.7,1.7,0,0,1-.26-0.89l-0.54-6.49V101a0.89,0.89,0,0,1,.21-0.64,0.81,0.81,0,0,1,.62-0.22h1.67a0.81,0.81,0,0,1,.62.22,0.89,0.89,0,0,1,.21.64v0.21l-0.54,6.49a1.7,1.7,0,0,1-.26.89,0.8,0.8,0,0,1-.63.22H78.29Z" transform="translate(-6.96 -5.48)"/><path class="cls-2" d="M92.78,114.13h14.57a0.89,0.89,0,0,1,.64.21,0.81,0.81,0,0,1,.22.62v2.2a1,1,0,0,1-.27.67,0.79,0.79,0,0,1-.59.3H92.78a0.66,0.66,0,0,1-.55-0.26,1.13,1.13,0,0,1-.2-0.7V115a0.85,0.85,0,0,1,.21-0.6A0.71,0.71,0,0,1,92.78,114.13Z" transform="translate(-6.96 -5.48)"/><path class="cls-2" d="M114.38,114.13H129a0.89,0.89,0,0,1,.64.21,0.81,0.81,0,0,1,.22.62v2.2a1,1,0,0,1-.27.67,0.79,0.79,0,0,1-.59.3H114.38a0.66,0.66,0,0,1-.55-0.26,1.13,1.13,0,0,1-.2-0.7V115a0.85,0.85,0,0,1,.21-0.6A0.71,0.71,0,0,1,114.38,114.13Z" transform="translate(-6.96 -5.48)"/><path class="cls-2" d="M142.42,118.15h4.18a0.83,0.83,0,0,1,.45.11,0.32,0.32,0,0,1,.17.28,0.72,0.72,0,0,1,0,.22q0,0.13-.11.29l-5.26,10.3a1.08,1.08,0,0,1-.35.45,0.84,0.84,0,0,1-.51.17l-0.17,0-0.18,0-1.34-.47a1,1,0,0,1-.46-0.29,0.6,0.6,0,0,1-.16-0.4q0-.19,0-0.29a1.75,1.75,0,0,1,0-.18l2.5-9.14a1.4,1.4,0,0,1,.41-0.78A1.45,1.45,0,0,1,142.42,118.15Zm0.79-9.65a3.84,3.84,0,0,1,2.66.91,3,3,0,0,1,1,2.36,3.15,3.15,0,0,1-1,2.43,3.77,3.77,0,0,1-2.66.93,3.72,3.72,0,0,1-2.63-.93,3.15,3.15,0,0,1-1-2.43,3,3,0,0,1,1-2.36A3.77,3.77,0,0,1,143.21,108.5Z" transform="translate(-6.96 -5.48)"/><path class="cls-2" d="M228.83,118.15H233a0.83,0.83,0,0,1,.45.11,0.32,0.32,0,0,1,.17.28,0.72,0.72,0,0,1,0,.22q0,0.13-.11.29l-5.26,10.3a1.08,1.08,0,0,1-.35.45,0.84,0.84,0,0,1-.51.17l-0.17,0-0.18,0-1.34-.47a1,1,0,0,1-.46-0.29,0.6,0.6,0,0,1-.16-0.4q0-.19,0-0.29a1.75,1.75,0,0,1,0-.18l2.5-9.14a1.4,1.4,0,0,1,.41-0.78A1.45,1.45,0,0,1,228.83,118.15Zm0.79-9.65a3.84,3.84,0,0,1,2.66.91,3,3,0,0,1,1,2.36,3.15,3.15,0,0,1-1,2.43,3.77,3.77,0,0,1-2.66.93,3.72,3.72,0,0,1-2.63-.93,3.15,3.15,0,0,1-1-2.43,3,3,0,0,1,1-2.36A3.77,3.77,0,0,1,229.62,108.5Z" transform="translate(-6.96 -5.48)"/><path class="cls-2" d="M244,114.13h14.57a0.89,0.89,0,0,1,.64.21,0.81,0.81,0,0,1,.22.62v2.2a1,1,0,0,1-.27.67,0.79,0.79,0,0,1-.59.3H244a0.66,0.66,0,0,1-.55-0.26,1.13,1.13,0,0,1-.2-0.7V115a0.85,0.85,0,0,1,.21-0.6A0.71,0.71,0,0,1,244,114.13Z" transform="translate(-6.96 -5.48)"/><path class="cls-2" d="M265.6,114.13h14.57a0.89,0.89,0,0,1,.64.21,0.81,0.81,0,0,1,.22.62v2.2a1,1,0,0,1-.27.67,0.79,0.79,0,0,1-.59.3H265.6a0.66,0.66,0,0,1-.55-0.26,1.13,1.13,0,0,1-.2-0.7V115a0.85,0.85,0,0,1,.21-0.6A0.71,0.71,0,0,1,265.6,114.13Z" transform="translate(-6.96 -5.48)"/><path class="cls-2" d="M294.33,108.82a0.8,0.8,0,0,1-.63-0.22,1.7,1.7,0,0,1-.26-0.89l-0.54-6.49V101a0.89,0.89,0,0,1,.21-0.64,0.81,0.81,0,0,1,.62-0.22h1.67a0.81,0.81,0,0,1,.62.22,0.89,0.89,0,0,1,.21.64v0.21l-0.54,6.49a1.7,1.7,0,0,1-.26.89,0.8,0.8,0,0,1-.63.22h-0.44Z" transform="translate(-6.96 -5.48)"/><path class="cls-2" d="M320.11,124.71l-11.06-23.8a2.44,2.44,0,0,1-.13-0.35,1.12,1.12,0,0,1,0-.3,1.1,1.1,0,0,1,.39-0.84,1.34,1.34,0,0,1,.93-0.35,1,1,0,0,1,.76.33,4.59,4.59,0,0,1,.75,1.24l11,23.64a2,2,0,0,1,.11.35,1.88,1.88,0,0,1,0,.37,1.22,1.22,0,0,1-.34.87,1.11,1.11,0,0,1-.83.36,1.15,1.15,0,0,1-.81-0.31A3.91,3.91,0,0,1,320.11,124.71Z" transform="translate(-6.96 -5.48)"/><path class="cls-2" d="M341.72,124.71l-11.06-23.8a2.44,2.44,0,0,1-.13-0.35,1.12,1.12,0,0,1,0-.3,1.1,1.1,0,0,1,.39-0.84,1.34,1.34,0,0,1,.93-0.35,1,1,0,0,1,.76.33,4.59,4.59,0,0,1,.75,1.24l11,23.64a2,2,0,0,1,.11.35,1.88,1.88,0,0,1,0,.37,1.22,1.22,0,0,1-.34.87,1.11,1.11,0,0,1-.83.36,1.15,1.15,0,0,1-.81-0.31A3.91,3.91,0,0,1,341.72,124.71Z" transform="translate(-6.96 -5.48)"/><path class="cls-2" d="M9.74,167.91A3.75,3.75,0,0,1,9,169.1a1.16,1.16,0,0,1-.82.32,1.19,1.19,0,0,1-.86-0.36A1.17,1.17,0,0,1,7,168.19,1.2,1.2,0,0,1,7,167.87a3.62,3.62,0,0,1,.14-0.4l11-23.64a4.66,4.66,0,0,1,.77-1.24,1.12,1.12,0,0,1,.81-0.33,1.25,1.25,0,0,1,.9.35,1.12,1.12,0,0,1,.37.84,1.32,1.32,0,0,1,0,.32,1.37,1.37,0,0,1-.13.33Z" transform="translate(-6.96 -5.48)"/><path class="cls-2" d="M31.34,167.91a3.75,3.75,0,0,1-.73,1.2,1.16,1.16,0,0,1-.82.32,1.19,1.19,0,0,1-.86-0.36,1.17,1.17,0,0,1-.37-0.87,1.2,1.2,0,0,1,.05-0.33,3.62,3.62,0,0,1,.14-0.4l11-23.64a4.66,4.66,0,0,1,.77-1.24,1.12,1.12,0,0,1,.81-0.33,1.25,1.25,0,0,1,.9.35,1.12,1.12,0,0,1,.37.84,1.32,1.32,0,0,1,0,.32,1.37,1.37,0,0,1-.13.33Z" transform="translate(-6.96 -5.48)"/><path class="cls-2" d="M52.94,167.91a3.75,3.75,0,0,1-.73,1.2,1.16,1.16,0,0,1-.82.32,1.19,1.19,0,0,1-.86-0.36,1.17,1.17,0,0,1-.37-0.87,1.2,1.2,0,0,1,.05-0.33,3.62,3.62,0,0,1,.14-0.4l11-23.64a4.66,4.66,0,0,1,.77-1.24,1.12,1.12,0,0,1,.81-0.33,1.25,1.25,0,0,1,.9.35,1.12,1.12,0,0,1,.37.84,1.32,1.32,0,0,1,0,.32,1.37,1.37,0,0,1-.13.33Z" transform="translate(-6.96 -5.48)"/><path class="cls-2" d="M85.6,145.59L75.3,167.65a5.17,5.17,0,0,1-.88,1.44,1.3,1.3,0,0,1-.95.4A2.2,2.2,0,0,1,72,169a1.57,1.57,0,0,1-.62-1.27,4.5,4.5,0,0,1,.47-1.58l0-.07,10.28-22a5.36,5.36,0,0,1,.9-1.48,1.3,1.3,0,0,1,.95-0.4,2.21,2.21,0,0,1,1.42.51,1.56,1.56,0,0,1,.63,1.27,2.33,2.33,0,0,1-.11.67A7.68,7.68,0,0,1,85.6,145.59Z" transform="translate(-6.96 -5.48)"/><path class="cls-2" d="M107.21,145.59l-10.3,22.06a5.17,5.17,0,0,1-.88,1.44,1.3,1.3,0,0,1-.95.4,2.2,2.2,0,0,1-1.43-.51,1.57,1.57,0,0,1-.62-1.27,4.5,4.5,0,0,1,.47-1.58l0-.07,10.28-22a5.36,5.36,0,0,1,.9-1.48,1.3,1.3,0,0,1,.95-0.4,2.21,2.21,0,0,1,1.42.51,1.56,1.56,0,0,1,.63,1.27,2.33,2.33,0,0,1-.11.67A7.68,7.68,0,0,1,107.21,145.59Z" transform="translate(-6.96 -5.48)"/><path class="cls-2" d="M128.81,145.59l-10.3,22.06a5.17,5.17,0,0,1-.88,1.44,1.3,1.3,0,0,1-.95.4,2.2,2.2,0,0,1-1.43-.51,1.57,1.57,0,0,1-.62-1.27,4.5,4.5,0,0,1,.47-1.58l0-.07,10.28-22a5.36,5.36,0,0,1,.9-1.48,1.3,1.3,0,0,1,.95-0.4,2.21,2.21,0,0,1,1.42.51,1.56,1.56,0,0,1,.63,1.27,2.33,2.33,0,0,1-.11.67A7.68,7.68,0,0,1,128.81,145.59Z" transform="translate(-6.96 -5.48)"/><path class="cls-2" d="M150.41,145.59l-10.3,22.06a5.17,5.17,0,0,1-.88,1.44,1.3,1.3,0,0,1-.95.4,2.2,2.2,0,0,1-1.43-.51,1.57,1.57,0,0,1-.62-1.27,4.5,4.5,0,0,1,.47-1.58l0-.07L147,144a5.36,5.36,0,0,1,.9-1.48,1.3,1.3,0,0,1,.95-0.4,2.21,2.21,0,0,1,1.42.51,1.56,1.56,0,0,1,.63,1.27,2.33,2.33,0,0,1-.11.67A7.68,7.68,0,0,1,150.41,145.59Z" transform="translate(-6.96 -5.48)"/><path class="cls-2" d="M158.34,145.59a7.68,7.68,0,0,1-.4-1,2.33,2.33,0,0,1-.11-0.67,1.57,1.57,0,0,1,.62-1.27,2.2,2.2,0,0,1,1.43-.51,1.31,1.31,0,0,1,.94.4,5,5,0,0,1,.89,1.48l10.3,22a7.37,7.37,0,0,1,.4,1,2.36,2.36,0,0,1,.11.66,1.56,1.56,0,0,1-.65,1.26,2.26,2.26,0,0,1-1.44.52,1.28,1.28,0,0,1-.92-0.39,5.18,5.18,0,0,1-.89-1.46Z" transform="translate(-6.96 -5.48)"/><path class="cls-2" d="M175.41,172.62h22.24v3.3H175.41v-3.3Z" transform="translate(-6.96 -5.48)"/><path class="cls-2" d="M215.23,145.59l-10.3,22.06a5.17,5.17,0,0,1-.88,1.44,1.3,1.3,0,0,1-.95.4,2.2,2.2,0,0,1-1.43-.51,1.57,1.57,0,0,1-.62-1.27,4.5,4.5,0,0,1,.47-1.58l0-.07,10.28-22a5.36,5.36,0,0,1,.9-1.48,1.3,1.3,0,0,1,.95-0.4,2.21,2.21,0,0,1,1.42.51,1.56,1.56,0,0,1,.63,1.27,2.33,2.33,0,0,1-.11.67A7.68,7.68,0,0,1,215.23,145.59Z" transform="translate(-6.96 -5.48)"/><path class="cls-2" d="M223.15,145.59a7.68,7.68,0,0,1-.4-1,2.33,2.33,0,0,1-.11-0.67,1.57,1.57,0,0,1,.62-1.27,2.2,2.2,0,0,1,1.43-.51,1.31,1.31,0,0,1,.94.4,5,5,0,0,1,.89,1.48l10.3,22a7.37,7.37,0,0,1,.4,1,2.36,2.36,0,0,1,.11.66,1.56,1.56,0,0,1-.65,1.26,2.26,2.26,0,0,1-1.44.52,1.28,1.28,0,0,1-.92-0.39,5.18,5.18,0,0,1-.89-1.46Z" transform="translate(-6.96 -5.48)"/><path class="cls-2" d="M244.76,145.59a7.68,7.68,0,0,1-.4-1,2.33,2.33,0,0,1-.11-0.67,1.57,1.57,0,0,1,.62-1.27,2.2,2.2,0,0,1,1.43-.51,1.31,1.31,0,0,1,.94.4,5,5,0,0,1,.89,1.48l10.3,22a7.37,7.37,0,0,1,.4,1,2.36,2.36,0,0,1,.11.66,1.56,1.56,0,0,1-.65,1.26,2.26,2.26,0,0,1-1.44.52,1.28,1.28,0,0,1-.92-0.39,5.18,5.18,0,0,1-.89-1.46Z" transform="translate(-6.96 -5.48)"/><path class="cls-2" d="M266.36,145.59a7.68,7.68,0,0,1-.4-1,2.33,2.33,0,0,1-.11-0.67,1.57,1.57,0,0,1,.62-1.27,2.2,2.2,0,0,1,1.43-.51,1.31,1.31,0,0,1,.94.4,5,5,0,0,1,.89,1.48l10.3,22a7.37,7.37,0,0,1,.4,1,2.36,2.36,0,0,1,.11.66,1.56,1.56,0,0,1-.65,1.26,2.26,2.26,0,0,1-1.44.52,1.28,1.28,0,0,1-.92-0.39,5.18,5.18,0,0,1-.89-1.46Z" transform="translate(-6.96 -5.48)"/><path class="cls-2" d="M288,145.59a7.68,7.68,0,0,1-.4-1,2.33,2.33,0,0,1-.11-0.67,1.57,1.57,0,0,1,.62-1.27,2.2,2.2,0,0,1,1.43-.51,1.31,1.31,0,0,1,.94.4,5,5,0,0,1,.89,1.48l10.3,22a7.37,7.37,0,0,1,.4,1,2.36,2.36,0,0,1,.11.66,1.56,1.56,0,0,1-.65,1.26,2.26,2.26,0,0,1-1.44.52,1.28,1.28,0,0,1-.92-0.39,5.18,5.18,0,0,1-.89-1.46Z" transform="translate(-6.96 -5.48)"/><path class="cls-2" d="M320.11,167.91l-11.06-23.8a2.44,2.44,0,0,1-.13-0.35,1.12,1.12,0,0,1,0-.3,1.1,1.1,0,0,1,.39-0.84,1.34,1.34,0,0,1,.93-0.35,1,1,0,0,1,.76.33,4.59,4.59,0,0,1,.75,1.24l11,23.64a2,2,0,0,1,.11.35,1.88,1.88,0,0,1,0,.37,1.22,1.22,0,0,1-.34.87,1.11,1.11,0,0,1-.83.36,1.15,1.15,0,0,1-.81-0.31A3.91,3.91,0,0,1,320.11,167.91Z" transform="translate(-6.96 -5.48)"/><path class="cls-2" d="M341.72,167.91l-11.06-23.8a2.44,2.44,0,0,1-.13-0.35,1.12,1.12,0,0,1,0-.3,1.1,1.1,0,0,1,.39-0.84,1.34,1.34,0,0,1,.93-0.35,1,1,0,0,1,.76.33,4.59,4.59,0,0,1,.75,1.24l11,23.64a2,2,0,0,1,.11.35,1.88,1.88,0,0,1,0,.37,1.22,1.22,0,0,1-.34.87,1.11,1.11,0,0,1-.83.36,1.15,1.15,0,0,1-.81-0.31A3.91,3.91,0,0,1,341.72,167.91Z" transform="translate(-6.96 -5.48)"/><path class="cls-2" d="M363.32,167.91l-11.06-23.8a2.44,2.44,0,0,1-.13-0.35,1.12,1.12,0,0,1,0-.3,1.1,1.1,0,0,1,.39-0.84,1.34,1.34,0,0,1,.93-0.35,1,1,0,0,1,.76.33,4.59,4.59,0,0,1,.75,1.24l11,23.64a2,2,0,0,1,.11.35,1.88,1.88,0,0,1,0,.37,1.22,1.22,0,0,1-.34.87,1.11,1.11,0,0,1-.83.36,1.15,1.15,0,0,1-.81-0.31A3.91,3.91,0,0,1,363.32,167.91Z" transform="translate(-6.96 -5.48)"/><path class="cls-1" d="M166,195.59a5,5,0,0,1,1.71-1.2,5.22,5.22,0,0,1,2.07-.41,4,4,0,0,1,3.45,1.42q1.05,1.42,1.05,4.74v6.66h0.25a1.54,1.54,0,0,1,1.24.48,2.73,2.73,0,0,1,0,2.92,2,2,0,0,1-1.47.45h-3a1.19,1.19,0,0,1-.74-0.2,0.66,0.66,0,0,1-.26-0.55v-9.93a3.33,3.33,0,0,0-.37-1.76,1.19,1.19,0,0,0-1.07-.58,1.52,1.52,0,0,0-1.36.78,4.29,4.29,0,0,0-.48,2.24v6.15h0.26a1.55,1.55,0,0,1,1.23.48,2.69,2.69,0,0,1,0,2.92,2,2,0,0,1-1.48.45h-3a1.27,1.27,0,0,1-.76-0.2,0.65,0.65,0,0,1-.28-0.55v-9.93a3.47,3.47,0,0,0-.35-1.76,1.15,1.15,0,0,0-1.05-.58,1.56,1.56,0,0,0-1.38.79,4.17,4.17,0,0,0-.5,2.23v6.15H160a1.55,1.55,0,0,1,1.24.47,2.72,2.72,0,0,1,0,2.93,2,2,0,0,1-1.48.45h-4a2,2,0,0,1-1.46-.46,2.7,2.7,0,0,1,0-2.91,1.54,1.54,0,0,1,1.24-.48h0.25v-8.54H155.5a1.57,1.57,0,0,1-1.26-.5,2.13,2.13,0,0,1-.43-1.43,2,2,0,0,1,.45-1.47,2,2,0,0,1,1.49-.45h2.37a1.27,1.27,0,0,1,1,.29,1.76,1.76,0,0,1,.26,1.12,4.28,4.28,0,0,1,3.6-1.83,3.78,3.78,0,0,1,1.78.4A3.66,3.66,0,0,1,166,195.59Z" transform="translate(-6.96 -5.48)"/><path class="cls-1" d="M209.25,195.59a5,5,0,0,1,1.71-1.2A5.22,5.22,0,0,1,213,194a4,4,0,0,1,3.45,1.42q1.05,1.42,1.05,4.74v6.66h0.25a1.54,1.54,0,0,1,1.24.48,2.73,2.73,0,0,1,0,2.92,2,2,0,0,1-1.47.45h-3a1.19,1.19,0,0,1-.74-0.2,0.66,0.66,0,0,1-.26-0.55v-9.93a3.33,3.33,0,0,0-.37-1.76,1.19,1.19,0,0,0-1.07-.58,1.52,1.52,0,0,0-1.36.78,4.29,4.29,0,0,0-.48,2.24v6.15h0.26a1.55,1.55,0,0,1,1.23.48,2.69,2.69,0,0,1,0,2.92,2,2,0,0,1-1.48.45h-3a1.27,1.27,0,0,1-.76-0.2,0.65,0.65,0,0,1-.28-0.55v-9.93a3.47,3.47,0,0,0-.35-1.76,1.15,1.15,0,0,0-1.05-.58,1.56,1.56,0,0,0-1.38.79,4.17,4.17,0,0,0-.5,2.23v6.15h0.26a1.55,1.55,0,0,1,1.24.47,2.73,2.73,0,0,1,0,2.93,2,2,0,0,1-1.48.45h-4a2,2,0,0,1-1.46-.46,2.7,2.7,0,0,1,0-2.91,1.54,1.54,0,0,1,1.24-.48h0.25v-8.54H198.7a1.57,1.57,0,0,1-1.26-.5,2.13,2.13,0,0,1-.43-1.43,2,2,0,0,1,.45-1.47,2,2,0,0,1,1.49-.45h2.37a1.28,1.28,0,0,1,1,.29,1.76,1.76,0,0,1,.25,1.12,4.28,4.28,0,0,1,3.6-1.83,3.78,3.78,0,0,1,1.78.4A3.66,3.66,0,0,1,209.25,195.59Z" transform="translate(-6.96 -5.48)"/><path class="cls-2" d="M83.79,281.85v-0.07a1,1,0,0,1,.33-0.85,1.63,1.63,0,0,1,1-.27,1.09,1.09,0,0,1,1,.42,3.64,3.64,0,0,1,.27,1.74v3.27a1.3,1.3,0,0,1-.33,1,1.38,1.38,0,0,1-1,.33,1.27,1.27,0,0,1-.82-0.27,4.19,4.19,0,0,1-.83-1.13,6.05,6.05,0,0,0-2-2.15,5.24,5.24,0,0,0-2.77-.73,6.23,6.23,0,0,0-4.46,1.62,5.49,5.49,0,0,0-1.71,4.18,5.83,5.83,0,0,0,1.64,4.28,5.69,5.69,0,0,0,4.23,1.66,7.62,7.62,0,0,0,2.24-.33,7.35,7.35,0,0,0,2-1q0.33-.21.9-0.65a3.33,3.33,0,0,1,1.79-.93,1.17,1.17,0,0,1,1.23,1.23q0,1.39-2.63,2.84a11.38,11.38,0,0,1-5.58,1.45A8.8,8.8,0,0,1,71.94,295a8.61,8.61,0,0,1,0-12.21,8.73,8.73,0,0,1,6.33-2.45,10.32,10.32,0,0,1,2.68.36A15.29,15.29,0,0,1,83.79,281.85Z" transform="translate(-6.96 -5.48)"/><path class="cls-2" d="M109.33,288.93a8,8,0,0,1-2.57,6.15,10.45,10.45,0,0,1-13.31,0,8.65,8.65,0,0,1,0-12.3,10.46,10.46,0,0,1,13.3,0A8,8,0,0,1,109.33,288.93ZM100.11,295a6,6,0,0,0,4.44-1.71,6.37,6.37,0,0,0,0-8.74,6.53,6.53,0,0,0-8.85,0,6.4,6.4,0,0,0,0,8.75A6,6,0,0,0,100.11,295Z" transform="translate(-6.96 -5.48)"/><path class="cls-2" d="M127,297a0.63,0.63,0,0,1-.52-0.18,1.2,1.2,0,0,1-.15-0.71V294.7a7.17,7.17,0,0,1-2.64,2,8.09,8.09,0,0,1-3.43.73,7.36,7.36,0,0,1-5.56-2.36,8.85,8.85,0,0,1,.15-11.94,8,8,0,0,1,6-2.42,7.92,7.92,0,0,1,3.25.64,6.77,6.77,0,0,1,2.48,1.89v-6.73h-0.93a4.51,4.51,0,0,1-2-.27,1.07,1.07,0,0,1-.45-1,1.2,1.2,0,0,1,.36-0.95,1.54,1.54,0,0,1,1-.32h3.6a1.3,1.3,0,0,1,.76.18,0.63,0.63,0,0,1,.24.54v19.81H130a2.11,2.11,0,0,1,1.25.29,1.08,1.08,0,0,1,.39.92,1.26,1.26,0,0,1-.33.93,1.21,1.21,0,0,1-.9.33H127Zm-11.51-7.89a5.35,5.35,0,0,0,1.56,4,5.42,5.42,0,0,0,4,1.55,5.33,5.33,0,0,0,4-1.61,5.62,5.62,0,0,0,1.56-4.09,5.5,5.5,0,0,0-1.56-4,5.37,5.37,0,0,0-4-1.58,5.29,5.29,0,0,0-4,1.6A5.8,5.8,0,0,0,115.49,289.14Z" transform="translate(-6.96 -5.48)"/><path class="cls-2" d="M137.37,289.69a5.37,5.37,0,0,0,1.71,3.92,6.28,6.28,0,0,0,4.3,1.38,11,11,0,0,0,4.48-1.1,12.14,12.14,0,0,1,2.94-1.1,1.23,1.23,0,0,1,.88.33,1.09,1.09,0,0,1,.35.83,1.38,1.38,0,0,1-.37.93,3.83,3.83,0,0,1-1.18.82,17.93,17.93,0,0,1-3.63,1.31,15.75,15.75,0,0,1-3.72.45,8.88,8.88,0,0,1-6.42-2.31,8.1,8.1,0,0,1-2.41-6.13,8.26,8.26,0,0,1,2.55-6.29,9.28,9.28,0,0,1,6.64-2.41,8.73,8.73,0,0,1,6.15,2.25A7.14,7.14,0,0,1,152.1,288a1.65,1.65,0,0,1-.41,1.32,4.42,4.42,0,0,1-2.24.33H137.37Zm0.09-2.3H148.9a5.11,5.11,0,0,0-1.75-3.37,5.41,5.41,0,0,0-3.65-1.27,6.27,6.27,0,0,0-3.94,1.23A5.81,5.81,0,0,0,137.46,287.38Z" transform="translate(-6.96 -5.48)"/><path d="M162.38,283.32a6.41,6.41,0,0,1,2.46-1.88,8.2,8.2,0,0,1,3.34-.65,7.94,7.94,0,0,1,5.89,2.38,8.06,8.06,0,0,1,2.36,5.9,8.24,8.24,0,0,1-8.31,8.28,7.43,7.43,0,0,1-3.22-.65,5.51,5.51,0,0,1-2.25-2v1.41a1.11,1.11,0,0,1-.17.69,0.66,0.66,0,0,1-.55.21h-3.22a1.44,1.44,0,0,1-1-.32,1.25,1.25,0,0,1-.33-0.95,1,1,0,0,1,.4-1,3.36,3.36,0,0,1,1.6-.25h0.37v-18h-0.33a3.3,3.3,0,0,1-1.63-.28,1.08,1.08,0,0,1-.44-1,1.21,1.21,0,0,1,.35-0.95,1.5,1.5,0,0,1,1-.32h2.67a1.3,1.3,0,0,1,.76.18,0.63,0.63,0,0,1,.24.54v8.58Zm5.48,11.27a5.41,5.41,0,0,0,4-1.56,5.53,5.53,0,0,0,1.55-4.06,5.47,5.47,0,0,0-1.57-4,5.86,5.86,0,0,0-8,0,6,6,0,0,0,0,8.08A5.37,5.37,0,0,0,167.87,294.59Z" transform="translate(-6.96 -5.48)"/><path d="M192.56,294.8a10.59,10.59,0,0,1-3.14,2,9.23,9.23,0,0,1-3.49.69,6,6,0,0,1-4.23-1.46,4.89,4.89,0,0,1-1.61-3.8,5,5,0,0,1,2.14-4.31,10.18,10.18,0,0,1,6-1.53,16.3,16.3,0,0,1,2.06.13,17.19,17.19,0,0,1,2.13.41V286.8a3.45,3.45,0,0,0-4-4,7.73,7.73,0,0,0-3.06.74,7.5,7.5,0,0,1-2.23.74,1,1,0,0,1-.84-0.41,1.64,1.64,0,0,1-.33-1.06q0-1,1.94-1.76a14.47,14.47,0,0,1,5-.72,6.36,6.36,0,0,1,4.68,1.57,6.28,6.28,0,0,1,1.58,4.65v8H196a3.53,3.53,0,0,1,1.67.26,1,1,0,0,1,.42.95,1.21,1.21,0,0,1-.35.95,1.53,1.53,0,0,1-1.05.32h-2.76a1.13,1.13,0,0,1-.81-0.3,1.54,1.54,0,0,1-.42-0.86Zm-0.14-5.54a12.65,12.65,0,0,0-1.87-.47,11,11,0,0,0-1.8-.15,8.47,8.47,0,0,0-4.27.91,2.76,2.76,0,0,0-1.56,2.46,2.41,2.41,0,0,0,1,2,3.88,3.88,0,0,0,2.49.77,7.78,7.78,0,0,0,4.14-1.17q1.91-1.17,1.91-2.43v-1.9Z" transform="translate(-6.96 -5.48)"/><path d="M203.58,294.56V283.29h-0.33a3.36,3.36,0,0,1-1.64-.28,1.07,1.07,0,0,1-.45-1,1.12,1.12,0,0,1,.37-0.94,2,2,0,0,1,1.2-.29h2.51a1.23,1.23,0,0,1,.74.19,0.62,0.62,0,0,1,.26.53v1.2a9.65,9.65,0,0,1,2.54-1.77,6.24,6.24,0,0,1,2.61-.57,5.39,5.39,0,0,1,4.17,1.65,6.49,6.49,0,0,1,1.52,4.57v8h0.83a2.17,2.17,0,0,1,1.27.29,1.07,1.07,0,0,1,.39.92,1.11,1.11,0,0,1-.41,1,2.7,2.7,0,0,1-1.47.29H213.8a2.54,2.54,0,0,1-1.44-.26,1.26,1.26,0,0,1-.32-1,1.09,1.09,0,0,1,.37-0.95,2.6,2.6,0,0,1,1.4-.26h0.62v-7.31a4.67,4.67,0,0,0-.93-3.14,3.39,3.39,0,0,0-2.71-1.08,4.65,4.65,0,0,0-3.17,1.21,3.85,3.85,0,0,0-1.37,3v7.31h0.62a2.65,2.65,0,0,1,1.42.26,1.09,1.09,0,0,1,.37.95,1.26,1.26,0,0,1-.32,1,2.82,2.82,0,0,1-1.55.26h-4.15a1.63,1.63,0,0,1-1.08-.31,1.19,1.19,0,0,1-.36-1,1,1,0,0,1,.41-1,3.42,3.42,0,0,1,1.61-.25h0.37Z" transform="translate(-6.96 -5.48)"/><path d="M237,297a0.63,0.63,0,0,1-.52-0.18,1.2,1.2,0,0,1-.15-0.71V294.7a7.17,7.17,0,0,1-2.64,2,8.09,8.09,0,0,1-3.43.73,7.36,7.36,0,0,1-5.56-2.36,8.85,8.85,0,0,1,.15-11.94,8,8,0,0,1,6-2.42,7.92,7.92,0,0,1,3.25.64,6.77,6.77,0,0,1,2.48,1.89v-6.73h-0.93a4.51,4.51,0,0,1-2-.27,1.07,1.07,0,0,1-.45-1,1.2,1.2,0,0,1,.36-0.95,1.54,1.54,0,0,1,1-.32h3.6a1.3,1.3,0,0,1,.76.18,0.63,0.63,0,0,1,.24.54v19.81H240a2.11,2.11,0,0,1,1.25.29,1.08,1.08,0,0,1,.39.92,1.26,1.26,0,0,1-.33.93,1.21,1.21,0,0,1-.9.33H237Zm-11.51-7.89a5.35,5.35,0,0,0,1.56,4,5.42,5.42,0,0,0,4,1.55,5.33,5.33,0,0,0,4-1.61A5.62,5.62,0,0,0,236.6,289a5.5,5.5,0,0,0-1.56-4,5.37,5.37,0,0,0-4-1.58,5.29,5.29,0,0,0-4,1.6A5.8,5.8,0,0,0,225.5,289.14Z" transform="translate(-6.96 -5.48)"/><path d="M255,294.56h5.64a1.49,1.49,0,0,1,1,.29,1.18,1.18,0,0,1,.33.92,1.29,1.29,0,0,1-.31,1,1.75,1.75,0,0,1-1.13.27H246.88a1.53,1.53,0,0,1-1.05-.32,1.21,1.21,0,0,1-.35-0.95,1.11,1.11,0,0,1,.37-0.91,1.73,1.73,0,0,1,1.11-.3h5.36V283.27h-3.44a1.66,1.66,0,0,1-1.1-.32,1.35,1.35,0,0,1,0-1.85,1.57,1.57,0,0,1,1.05-.31h5.15a1.27,1.27,0,0,1,.75.19,0.61,0.61,0,0,1,.27.53v13Zm-3.25-18.83a5.07,5.07,0,0,1,.34-2.39,1.71,1.71,0,0,1,1.47-.49,1.88,1.88,0,0,1,1.44.41,3.45,3.45,0,0,1,.35,2,3.28,3.28,0,0,1-.33,1.87,2.06,2.06,0,0,1-1.47.36,2.22,2.22,0,0,1-1.47-.33A2,2,0,0,1,251.71,275.73Z" transform="translate(-6.96 -5.48)"/><path d="M279.73,281.78a2.1,2.1,0,0,1,1.26.3,1.11,1.11,0,0,1,.4.95,1.13,1.13,0,0,1-.37.92,1.7,1.7,0,0,1-1.11.31h-7.12v5.87q0,2.88.75,3.8a3.13,3.13,0,0,0,2.56.91,10.27,10.27,0,0,0,3.83-.93,11.27,11.27,0,0,1,2.76-.93,1.12,1.12,0,0,1,.83.35,1.19,1.19,0,0,1,.34.86,1.38,1.38,0,0,1-.43,1A4.36,4.36,0,0,1,282,296a21.54,21.54,0,0,1-3.1,1,11.63,11.63,0,0,1-2.59.32,8.07,8.07,0,0,1-3.45-.66,4.4,4.4,0,0,1-2.08-2,4.51,4.51,0,0,1-.5-1.46,16.36,16.36,0,0,1-.15-2.6v-6.42h-3A1.62,1.62,0,0,1,266,284a1.18,1.18,0,0,1-.33-0.94,1,1,0,0,1,.46-1,4.59,4.59,0,0,1,2-.26h2v-4.54a1.63,1.63,0,0,1,.33-1.12,1.3,1.3,0,0,1,1-.36,1.2,1.2,0,0,1,1.07.44,4.2,4.2,0,0,1,.3,2v3.57h6.94Z" transform="translate(-6.96 -5.48)"/><path d="M288.87,295.77v-3.13a1.68,1.68,0,0,1,.29-1.11,1.18,1.18,0,0,1,.94-0.33,1.31,1.31,0,0,1,1.14,1,5.13,5.13,0,0,0,.51.9,5,5,0,0,0,2.18,1.52,8.56,8.56,0,0,0,3.18.57,5.28,5.28,0,0,0,3-.76,2.3,2.3,0,0,0,1.13-2,1.89,1.89,0,0,0-.91-1.78,6.58,6.58,0,0,0-3.1-.53h-1a9.9,9.9,0,0,1-5.47-1.25,4.08,4.08,0,0,1-1.88-3.62,4.14,4.14,0,0,1,1.84-3.6,8.92,8.92,0,0,1,5.16-1.28,10.61,10.61,0,0,1,2.76.38q1.41,0.38,1.48.38a1.89,1.89,0,0,0,.74-0.34,2,2,0,0,1,1.07-.34,1,1,0,0,1,.89.44,2.42,2.42,0,0,1,.29,1.32v2.06a2.46,2.46,0,0,1-.28,1.34,1,1,0,0,1-.9.41,2.06,2.06,0,0,1-1.3-.9,12.1,12.1,0,0,0-.9-0.93,5.82,5.82,0,0,0-2-1.24,7.35,7.35,0,0,0-2.48-.38,4.45,4.45,0,0,0-2.66.73,2.2,2.2,0,0,0-1,1.85,1.63,1.63,0,0,0,1,1.58,13.76,13.76,0,0,0,4.46.54,9.87,9.87,0,0,1,5.34,1.27,4.17,4.17,0,0,1,1.69,3.67,4.54,4.54,0,0,1-1.86,3.8,8.08,8.08,0,0,1-5,1.42,15.17,15.17,0,0,1-2.23-.18q-1.23-.18-3.09-0.62a8.37,8.37,0,0,1-1.05.61,1.85,1.85,0,0,1-.74.2,1.11,1.11,0,0,1-.94-0.43A2,2,0,0,1,288.87,295.77Z" transform="translate(-6.96 -5.48)"/></svg>